<?xml version="1.0" standalone="no"?><!DOCTYPE svg PUBLIC "-//W3C//DTD SVG 1.1//EN" "http://www.w3.org/Graphics/SVG/1.1/DTD/svg11.dtd"><svg class="icon" height="512" viewBox="0 0 1024 1024" version="1.1" xmlns="http://www.w3.org/2000/svg"><path d="M949.76 146.944l-72.704-72.704c-24.064-24.064-62.976-24.064-87.04 0L512 352.256 233.984 74.24c-24.064-24.064-62.976-24.064-87.04 0L74.24 146.944c-24.064 24.064-24.064 62.976 0 87.04L352.256 512l-278.016 278.016c-24.064 24.064-24.064 62.976 0 87.04l72.704 72.704c24.064 24.064 62.976 24.064 87.04 0l278.016-278.016 278.016 278.016c24.064 24.064 62.976 24.064 87.04 0l72.704-72.704c24.064-24.064 24.064-62.976 0-87.04L671.744 512l278.016-278.016c24.064-24.064 24.064-62.976 0-87.04z" /></svg>